<mxfile host="app.diagrams.net" modified="2020-11-10T23:46:42.200Z" agent="5.0 (Macintosh; Intel Mac OS X 10_15_6) AppleWebKit/605.1.15 (KHTML, like Gecko) Version/14.0.1 Safari/605.1.15" etag="FGVsdEpR6BcKQGuDiC6F" version="13.9.3" type="github" pages="2">
  <diagram id="jDObRsGwntawownJrPFP" name="MVC">
    <mxGraphModel dx="1678" dy="1735" grid="0" gridSize="10" guides="1" tooltips="1" connect="1" arrows="1" fold="1" page="0" pageScale="1" pageWidth="827" pageHeight="1169" math="0" shadow="0">
      <root>
        <mxCell id="0" />
        <mxCell id="1" parent="0" />
        <mxCell id="szyK-QBZzXL7VqzzATRe-13" value="" style="group;rounded=0;" parent="1" vertex="1" connectable="0">
          <mxGeometry x="-170" y="-630" width="960" height="560" as="geometry" />
        </mxCell>
        <mxCell id="szyK-QBZzXL7VqzzATRe-11" value="" style="rounded=1;whiteSpace=wrap;html=1;fillColor=#f5f5f5;strokeColor=#666666;fontColor=#333333;" parent="szyK-QBZzXL7VqzzATRe-13" vertex="1">
          <mxGeometry width="960" height="560" as="geometry" />
        </mxCell>
        <mxCell id="szyK-QBZzXL7VqzzATRe-1" value="&lt;font style=&quot;font-size: 18px&quot;&gt;&lt;b&gt;View Controller&lt;/b&gt;&lt;/font&gt;" style="html=1;fillColor=#b0e3e6;strokeColor=#0e8088;" parent="szyK-QBZzXL7VqzzATRe-13" vertex="1">
          <mxGeometry x="170" y="110" width="600" height="90" as="geometry" />
        </mxCell>
        <mxCell id="szyK-QBZzXL7VqzzATRe-2" value="&lt;font style=&quot;font-size: 18px&quot;&gt;&lt;b&gt;Model&lt;/b&gt;&lt;/font&gt;" style="html=1;fillColor=#dae8fc;strokeColor=#6c8ebf;" parent="szyK-QBZzXL7VqzzATRe-13" vertex="1">
          <mxGeometry x="220" y="416" width="190" height="90" as="geometry" />
        </mxCell>
        <mxCell id="szyK-QBZzXL7VqzzATRe-3" value="&lt;font size=&quot;4&quot;&gt;&lt;b&gt;View&lt;/b&gt;&lt;/font&gt;" style="html=1;fillColor=#d5e8d4;strokeColor=#82b366;" parent="szyK-QBZzXL7VqzzATRe-13" vertex="1">
          <mxGeometry x="530" y="416" width="179" height="90" as="geometry" />
        </mxCell>
        <mxCell id="szyK-QBZzXL7VqzzATRe-4" value="" style="endArrow=open;endFill=1;endSize=12;html=1;entryX=0.529;entryY=0;entryDx=0;entryDy=0;exitX=0.25;exitY=1;exitDx=0;exitDy=0;entryPerimeter=0;" parent="szyK-QBZzXL7VqzzATRe-13" source="szyK-QBZzXL7VqzzATRe-1" target="szyK-QBZzXL7VqzzATRe-2" edge="1">
          <mxGeometry width="160" relative="1" as="geometry">
            <mxPoint x="448" y="361" as="sourcePoint" />
            <mxPoint x="608" y="361" as="targetPoint" />
          </mxGeometry>
        </mxCell>
        <mxCell id="szyK-QBZzXL7VqzzATRe-6" value="&lt;b&gt;&lt;font style=&quot;font-size: 18px&quot;&gt;1...*&lt;/font&gt;&lt;/b&gt;" style="edgeLabel;html=1;align=center;verticalAlign=middle;resizable=0;points=[];" parent="szyK-QBZzXL7VqzzATRe-4" vertex="1" connectable="0">
          <mxGeometry x="-0.0926" y="1" relative="1" as="geometry">
            <mxPoint as="offset" />
          </mxGeometry>
        </mxCell>
        <mxCell id="szyK-QBZzXL7VqzzATRe-5" value="" style="endArrow=open;endFill=1;endSize=12;html=1;exitX=0.75;exitY=1;exitDx=0;exitDy=0;entryX=0.5;entryY=0;entryDx=0;entryDy=0;" parent="szyK-QBZzXL7VqzzATRe-13" source="szyK-QBZzXL7VqzzATRe-1" target="szyK-QBZzXL7VqzzATRe-3" edge="1">
          <mxGeometry width="160" relative="1" as="geometry">
            <mxPoint x="448" y="361" as="sourcePoint" />
            <mxPoint x="608" y="361" as="targetPoint" />
          </mxGeometry>
        </mxCell>
        <mxCell id="szyK-QBZzXL7VqzzATRe-8" value="&lt;b&gt;&lt;font style=&quot;font-size: 18px&quot;&gt;1...*&lt;/font&gt;&lt;/b&gt;" style="edgeLabel;html=1;align=center;verticalAlign=middle;resizable=0;points=[];" parent="szyK-QBZzXL7VqzzATRe-5" vertex="1" connectable="0">
          <mxGeometry x="0.0186" y="-2" relative="1" as="geometry">
            <mxPoint as="offset" />
          </mxGeometry>
        </mxCell>
        <mxCell id="szyK-QBZzXL7VqzzATRe-9" value="&lt;b&gt;&lt;font style=&quot;font-size: 18px&quot;&gt;Target-Action&lt;/font&gt;&lt;/b&gt;" style="endArrow=open;endSize=12;dashed=1;html=1;exitX=1;exitY=0.5;exitDx=0;exitDy=0;entryX=1;entryY=0.356;entryDx=0;entryDy=0;entryPerimeter=0;" parent="szyK-QBZzXL7VqzzATRe-13" source="szyK-QBZzXL7VqzzATRe-3" target="szyK-QBZzXL7VqzzATRe-1" edge="1">
          <mxGeometry width="160" relative="1" as="geometry">
            <mxPoint x="450" y="360" as="sourcePoint" />
            <mxPoint x="610" y="360" as="targetPoint" />
            <Array as="points">
              <mxPoint x="860" y="461" />
              <mxPoint x="860" y="142" />
            </Array>
          </mxGeometry>
        </mxCell>
        <mxCell id="szyK-QBZzXL7VqzzATRe-10" value="&lt;b&gt;&lt;font style=&quot;font-size: 18px&quot;&gt;属性观察&lt;/font&gt;&lt;/b&gt;" style="endArrow=open;endSize=12;dashed=1;html=1;exitX=0;exitY=0.5;exitDx=0;exitDy=0;entryX=0;entryY=0.5;entryDx=0;entryDy=0;" parent="szyK-QBZzXL7VqzzATRe-13" source="szyK-QBZzXL7VqzzATRe-2" target="szyK-QBZzXL7VqzzATRe-1" edge="1">
          <mxGeometry x="0.1198" y="2" width="160" relative="1" as="geometry">
            <mxPoint x="450" y="360" as="sourcePoint" />
            <mxPoint x="610" y="360" as="targetPoint" />
            <Array as="points">
              <mxPoint x="90" y="461" />
              <mxPoint x="90" y="155" />
            </Array>
            <mxPoint as="offset" />
          </mxGeometry>
        </mxCell>
        <mxCell id="szyK-QBZzXL7VqzzATRe-12" value="&lt;b&gt;&lt;font style=&quot;font-size: 24px&quot;&gt;Model-View-Controller&lt;/font&gt;&lt;/b&gt;" style="text;html=1;strokeColor=none;fillColor=none;align=center;verticalAlign=middle;whiteSpace=wrap;rounded=0;" parent="szyK-QBZzXL7VqzzATRe-13" vertex="1">
          <mxGeometry x="530" width="350" height="80" as="geometry" />
        </mxCell>
      </root>
    </mxGraphModel>
  </diagram>
  <diagram id="FnQoeaNUSrJhfCRvXRmH" name="Delegate">
    <mxGraphModel dx="1086" dy="795" grid="1" gridSize="10" guides="1" tooltips="1" connect="1" arrows="1" fold="1" page="1" pageScale="1" pageWidth="827" pageHeight="1169" math="0" shadow="0">
      <root>
        <mxCell id="1UdEmpIFHIsiw1VHPK3h-0" />
        <mxCell id="1UdEmpIFHIsiw1VHPK3h-1" parent="1UdEmpIFHIsiw1VHPK3h-0" />
        <mxCell id="dvKTNCH3O4F9sTeGlxX9-8" value="" style="rounded=1;whiteSpace=wrap;html=1;fillColor=#f5f5f5;strokeColor=#666666;fontColor=#333333;" vertex="1" parent="1UdEmpIFHIsiw1VHPK3h-1">
          <mxGeometry x="60" y="200" width="740" height="270" as="geometry" />
        </mxCell>
        <mxCell id="dvKTNCH3O4F9sTeGlxX9-2" value="&lt;font style=&quot;font-size: 18px&quot;&gt;«interface»&lt;br&gt;&lt;b&gt;代理协议&lt;/b&gt;&lt;br&gt;&lt;/font&gt;" style="html=1;rounded=1;fillColor=#fff2cc;strokeColor=#d6b656;" vertex="1" parent="1UdEmpIFHIsiw1VHPK3h-1">
          <mxGeometry x="320" y="320" width="160" height="80" as="geometry" />
        </mxCell>
        <mxCell id="dvKTNCH3O4F9sTeGlxX9-3" value="&lt;font style=&quot;font-size: 18px&quot;&gt;&lt;b&gt;需要代理的对象&lt;/b&gt;&lt;/font&gt;" style="html=1;rounded=1;fillColor=#d5e8d4;strokeColor=#82b366;" vertex="1" parent="1UdEmpIFHIsiw1VHPK3h-1">
          <mxGeometry x="80" y="320" width="165" height="80" as="geometry" />
        </mxCell>
        <mxCell id="dvKTNCH3O4F9sTeGlxX9-4" value="&lt;b&gt;&lt;font style=&quot;font-size: 18px&quot;&gt;实现代理协议的对象&lt;/font&gt;&lt;/b&gt;" style="html=1;rounded=1;fillColor=#d5e8d4;strokeColor=#82b366;" vertex="1" parent="1UdEmpIFHIsiw1VHPK3h-1">
          <mxGeometry x="590" y="320" width="190" height="80" as="geometry" />
        </mxCell>
        <mxCell id="dvKTNCH3O4F9sTeGlxX9-5" value="&lt;font size=&quot;4&quot;&gt;&lt;b&gt;依赖&lt;/b&gt;&lt;/font&gt;" style="endArrow=open;endSize=12;dashed=1;html=1;exitX=1;exitY=0.5;exitDx=0;exitDy=0;entryX=0;entryY=0.5;entryDx=0;entryDy=0;" edge="1" parent="1UdEmpIFHIsiw1VHPK3h-1" source="dvKTNCH3O4F9sTeGlxX9-3" target="dvKTNCH3O4F9sTeGlxX9-2">
          <mxGeometry width="160" relative="1" as="geometry">
            <mxPoint x="150" y="500" as="sourcePoint" />
            <mxPoint x="310" y="500" as="targetPoint" />
          </mxGeometry>
        </mxCell>
        <mxCell id="dvKTNCH3O4F9sTeGlxX9-6" value="" style="endArrow=block;dashed=1;endFill=0;endSize=12;html=1;exitX=0;exitY=0.5;exitDx=0;exitDy=0;entryX=1;entryY=0.5;entryDx=0;entryDy=0;" edge="1" parent="1UdEmpIFHIsiw1VHPK3h-1" source="dvKTNCH3O4F9sTeGlxX9-4" target="dvKTNCH3O4F9sTeGlxX9-2">
          <mxGeometry width="160" relative="1" as="geometry">
            <mxPoint x="330" y="350" as="sourcePoint" />
            <mxPoint x="490" y="350" as="targetPoint" />
          </mxGeometry>
        </mxCell>
        <mxCell id="dvKTNCH3O4F9sTeGlxX9-7" value="&lt;font size=&quot;4&quot;&gt;&lt;b&gt;实现&lt;/b&gt;&lt;/font&gt;" style="edgeLabel;html=1;align=center;verticalAlign=middle;resizable=0;points=[];" vertex="1" connectable="0" parent="dvKTNCH3O4F9sTeGlxX9-6">
          <mxGeometry x="-0.075" y="-2" relative="1" as="geometry">
            <mxPoint as="offset" />
          </mxGeometry>
        </mxCell>
        <mxCell id="dvKTNCH3O4F9sTeGlxX9-9" value="&lt;font size=&quot;5&quot;&gt;&lt;b&gt;Delegte模式&lt;/b&gt;&lt;/font&gt;" style="text;html=1;strokeColor=none;fillColor=none;align=center;verticalAlign=middle;whiteSpace=wrap;rounded=0;" vertex="1" parent="1UdEmpIFHIsiw1VHPK3h-1">
          <mxGeometry x="540" y="210" width="210" height="60" as="geometry" />
        </mxCell>
      </root>
    </mxGraphModel>
  </diagram>
</mxfile>
